#!OML:ASF E:\motion texture\Top Level 1\Subject 1\Session 1\male.ASF
:FULLY-SPECIFIED
:DEGREES
375
root -2.29478 18.0179 4.87778 54.9003 -55.179 -19.7486
lowerback 36.4965 1.03221 -5.39102
upperback 11.9443 -1.60469 -1.94678
thorax -4.80734 -1.1574 1.34688
lowerneck -5.98012 -9.56684 -13.7528
upperneck -18.0749 -10.3169 32.1996
head -1.14812 -6.47996 12.6756
rclavicle 4.13472e-014 -2.50469e-014
rhumerus -2.99918 34.494 -84.8815
rradius 90.2909
rwrist 23.3146
rhand -31.9949 -26.4112
rfingers 7.12502
rthumb -5.24376 -56.3263
lclavicle 4.13472e-014 -2.50469e-014
lhumerus -2.51401 -23.2178 69.3198
lradius 88.5011
lwrist 10.1784
lhand -6.17572 37.3756
lfingers 7.12502
lthumb 19.6634 66.4011
rfemur -62.534 -13.1474 32.6352
rtibia 49.2163
rfoot -6.79917 -16.2355
rtoes -12.0205
lfemur -62.5674 7.59911 3.83109
ltibia 46.1641
lfoot -2.28132 7.53144
ltoes -26.149
376
root -2.4365 18.0391 4.8957 54.4397 -55.8191 -20.0868
lowerback 35.9815 1.0305 -5.45547
upperback 11.8038 -1.58499 -1.89849
thorax -4.78208 -1.1488 1.42416
lowerneck -5.91156 -9.72123 -13.8669
upperneck -18.0446 -10.5488 32.4515
head -1.06112 -6.60792 12.7627
rclavicle -2.8625e-014 -3.61788e-014
rhumerus -3.40148 35.366 -85.0673
rradius 90.9503
rwrist 23.6945
rhand -31.793 -26.1064
rfingers 7.12502
rthumb -5.04886 -56.0262
lclavicle -2.8625e-014 -3.61788e-014
lhumerus -4.00234 -24.6813 70.5334
lradius 89.6047
lwrist 9.91489
lhand -5.90746 37.4187
lfingers 7.12502
lthumb 19.9213 66.4176
rfemur -62.0885 -13.0949 32.3526
rtibia 47.6139
rfoot -6.60459 -16.2273
rtoes -12.2393
lfemur -61.1737 7.48643 3.86581
ltibia 46.3495
lfoot -2.08806 7.7438
ltoes -26.679
377
root -2.58102 18.0567 4.91306 53.9899 -56.4703 -20.44
lowerback 35.4338 1.01554 -5.51872
upperback 11.6568 -1.57766 -1.85845
thorax -4.7493 -1.14509 1.49626
lowerneck -5.84942 -9.86985 -13.9731
upperneck -17.9906 -10.7784 32.6852
head -0.968536 -6.73139 12.8394
rclavicle 4.13472e-014 6.91771e-014
rhumerus -3.84768 36.1927 -85.2762
rradius 91.5858
rwrist 24.003
rhand -31.5685 -25.8107
rfingers 7.12502
rthumb -4.83212 -55.7356
lclavicle 4.13472e-014 6.91771e-014
lhumerus -5.46574 -26.0529 71.7491
lradius 90.6096
lwrist 9.69088
lhand -5.60516 37.4473
lfingers 7.12502
lthumb 20.2119 66.4158
rfemur -61.634 -13.0383 32.1086
rtibia 46.0334
rfoot -6.37951 -16.1773
rtoes -12.4107
lfemur -59.7896 7.37933 3.89255
ltibia 46.5757
lfoot -1.87922 7.95046
ltoes -27.1821
378
root -2.72866 18.0709 4.92984 53.5473 -57.132 -20.8079
lowerback 34.7668 0.97916 -5.56936
upperback 11.5958 -1.58033 -1.845
thorax -4.7108 -1.14655 1.56249
lowerneck -5.79474 -10.012 -14.069
upperneck -17.9091 -11.0053 32.8988
head -0.869826 -6.84977 12.9041
rclavicle -1.27222e-014 1.70955e-014
rhumerus -4.34033 36.9689 -85.5074
rradius 92.2017
rwrist 24.2447
rhand -31.3324 -25.537
rfingers 7.12502
rthumb -4.60408 -55.467
lclavicle -1.27222e-014 1.70955e-014
lhumerus -6.89943 -27.3268 72.9558
lradius 91.519
lwrist 9.50882
lhand -5.2679 37.4601
lfingers 7.12502
lthumb 20.536 66.3939
rfemur -61.168 -12.9854 31.9102
rtibia 44.4901
rfoot -6.12989 -16.0883
rtoes -12.5444
lfemur -58.4094 7.27558 3.91278
ltibia 46.8412
lfoot -1.65293 8.15019
ltoes -27.6543
379
root -2.87947 18.0814 4.94616 53.1089 -57.803 -21.1864
lowerback 34.166 0.938951 -5.63066
upperback 11.4362 -1.5975 -1.82057
thorax -4.66627 -1.15266 1.62566
lowerneck -5.75115 -10.1484 -14.1648
upperneck -17.7964 -11.2305 33.0922
head -0.762432 -6.96223 12.958
rclavicle 9.54166e-015 1.44715e-013
rhumerus -4.87905 37.6877 -85.7464
rradius 92.806
rwrist 24.4164
rhand -31.0866 -25.2834
rfingers 7.12502
rthumb -4.3668 -55.2184
lclavicle 9.54166e-015 1.44715e-013
lhumerus -8.29185 -28.4978 74.1548
lradius 92.3278
lwrist 9.36071
lhand -4.89554 37.4508
lfingers 7.12502
lthumb 20.8938 66.3457
rfemur -60.692 -12.9405 31.7582
rtibia 43.0005
rfoot -5.85296 -15.9703
rtoes -12.6493
lfemur -57.0346 7.17196 3.92458
ltibia 47.146
lfoot -1.40748 8.33975
ltoes -28.106
380
root -3.03358 18.0882 4.96198 52.6758 -58.4834 -21.576
lowerback 33.5391 0.886114 -5.69113
upperback 11.2702 -1.62719 -1.80386
thorax -4.61469 -1.16392 1.68405
lowerneck -5.71737 -10.2786 -14.252
upperneck -17.6518 -11.4539 33.2615
head -0.647725 -7.06898 12.9983
rclavicle -4.77083e-014 -6.2816e-014
rhumerus -5.46191 38.3442 -85.9911
rradius 93.402
rwrist 24.5223
rhand -30.8342 -25.0479
rfingers 7.12502
rthumb -4.12307 -54.9877
lclavicle -4.77083e-014 -6.2816e-014
lhumerus -9.65693 -29.562 75.325
lradius 93.0638
lwrist 9.24694
lhand -4.47959 37.4295
lfingers 7.12502
lthumb 21.2934 66.2797
rfemur -60.2063 -12.904 31.6527
rtibia 41.576
rfoot -5.56397 -15.8195
rtoes -12.6893
lfemur -55.6656 7.06749 3.92904
ltibia 47.4898
lfoot -1.14022 8.52151
ltoes -28.5287
381
root -3.19108 18.0912 4.97732 52.2478 -59.1729 -21.9757
lowerback 32.49 0.784393 -5.69484
upperback 11.4766 -1.65384 -1.89616
thorax -4.53703 -1.17749 1.76117
lowerneck -5.69331 -10.4026 -14.3278
upperneck -17.4739 -11.6757 33.4023
head -0.526257 -7.16988 13.0228
rclavicle -2.22639e-014 -4.77083e-015
rhumerus -6.08704 38.9331 -86.2335
rradius 93.9952
rwrist 24.5624
rhand -30.579 -24.8339
rfingers 7.12502
rthumb -3.8766 -54.7784
lclavicle -2.22639e-014 -4.77083e-015
lhumerus -10.9767 -30.5168 76.4632
lradius 93.7134
lwrist 9.15823
lhand -4.02564 37.391
lfingers 7.12502
lthumb 21.7293 66.1915
rfemur -59.71 -12.8748 31.5904
rtibia 40.2243
rfoot -5.26404 -15.6395
rtoes -12.6757
lfemur -54.3037 6.96114 3.92557
ltibia 47.8737
lfoot -0.847849 8.69435
ltoes -28.9255
382
root -3.35199 18.0903 4.99214 51.8259 -59.8715 -22.3871
lowerback 31.8393 0.711485 -5.75779
upperback 11.275 -1.70623 -1.88935
thorax -4.47382 -1.19786 1.81453
lowerneck -5.68021 -10.5202 -14.3917
upperneck -17.2614 -11.8956 33.5111
head -0.398121 -7.26443 13.0299
rclavicle -1.27222e-014 2.70347e-014
rhumerus -6.74876 39.4498 -86.4613
rradius 94.5921
rwrist 24.5366
rhand -30.3206 -24.6386
rfingers 7.12502
rthumb -3.62702 -54.5875
lclavicle -1.27222e-014 2.70347e-014
lhumerus -12.2538 -31.3602 77.5589
lradius 94.2917
lwrist 9.08824
lhand -3.53181 37.3195
lfingers 7.12502
lthumb 22.2035 66.0643
rfemur -59.2016 -12.8515 31.5692
rtibia 38.952
rfoot -4.94278 -15.4378
rtoes -12.5891
lfemur -52.9486 6.85271 3.91439
ltibia 48.2969
lfoot -0.520717 8.85868
ltoes -29.2646
383
root -3.5162 18.0857 5.00648 51.4113 -60.5784 -22.8109
lowerback 31.163 0.635039 -5.82339
upperback 11.0698 -1.7609 -1.8829
thorax -4.39916 -1.2192 1.8683
lowerneck -5.67005 -10.6324 -14.4402
upperneck -17.0236 -12.1135 33.5845
head -0.268313 -7.35383 13.019
rclavicle 1.59028e-014 4.29375e-014
rhumerus -7.43904 39.8791 -86.6547
rradius 95.198
rwrist 24.4496
rhand -30.0626 -24.4662
rfingers 7.12502
rthumb -3.37793 -54.4192
lclavicle 1.59028e-014 4.29375e-014
lhumerus -13.4743 -32.1019 78.6067
lradius 94.7994
lwrist 9.03315
lhand -3.0069 37.2112
lfingers 7.12502
lthumb 22.7073 65.8951
rfemur -58.6868 -12.8369 31.5888
rtibia 37.7774
rfoot -4.59497 -15.2084
rtoes -12.3842
lfemur -51.602 6.74023 3.89584
ltibia 48.7591
lfoot -0.156783 9.01495
ltoes -29.5497
384
root -3.68373 18.0772 5.02028 51.0089 -61.2919 -23.2531
lowerback 30.4743 0.542335 -5.88286
upperback 10.8558 -1.8327 -1.88409
thorax -4.32406 -1.24779 1.91451
lowerneck -5.68229 -10.7358 -14.4865
upperneck -16.7376 -12.3271 33.6293
head -0.125842 -7.43343 12.9933
rclavicle 2.8625e-014 -1.35174e-014
rhumerus -8.15221 40.2453 -86.8189
rradius 95.8167
rwrist 24.2982
rhand -29.8081 -24.32
rfingers 7.12502
rthumb -3.13213 -54.2768
lclavicle 2.8625e-014 -1.35174e-014
lhumerus -14.6527 -32.7216 79.5896
lradius 95.2458
lwrist 8.99479
lhand -2.47871 37.0637
lfingers 7.12502
lthumb 23.2142 65.6846
rfemur -58.1657 -12.8275 31.647
rtibia 36.7094
rfoot -4.24151 -14.957
rtoes -12.0915
lfemur -50.2629 6.62357 3.87332
ltibia 49.2583
lfoot 0.247969 9.1614
ltoes -29.7699
385
root -3.85454 18.0652 5.03378 50.6314 -62.0098 -23.7275
lowerback 29.7714 0.43913 -5.93305
upperback 10.6356 -1.9135 -1.88777
thorax -4.2451 -1.28011 1.95406
lowerneck -5.71107 -10.831 -14.526
upperneck -16.4105 -12.5361 33.6405
head 0.0249823 -7.50402 12.9511
rclavicle -3.18055e-014 1.43125e-014
rhumerus -8.87787 40.5366 -86.9342
rradius 96.4535
rwrist 24.089
rhand -29.5526 -24.1955
rfingers 7.12502
rthumb -2.88536 -54.1558
lclavicle -3.18055e-014 1.43125e-014
lhumerus -15.7745 -33.2258 80.5016
lradius 95.6307
lwrist 8.96295
lhand -1.93592 36.8842
lfingers 7.12502
lthumb 23.7349 65.4385
rfemur -57.6359 -12.8217 31.7488
rtibia 35.755
rfoot -3.8904 -14.6802
rtoes -11.7239
lfemur -48.9303 6.50293 3.85305
ltibia 49.7924
lfoot 0.699736 9.29805
ltoes -29.9124
386
root -4.02856 18.0498 5.04707 50.2872 -62.7299 -24.2441
lowerback 29.0599 0.328276 -5.97102
upperback 10.4091 -1.99955 -1.89115
thorax -4.16499 -1.31437 1.98713
lowerneck -5.75583 -10.919 -14.5569
upperneck -16.0425 -12.7414 33.6151
head 0.183624 -7.56624 12.8911
rclavicle 9.54166e-015 6.99722e-014
rhumerus -9.60647 40.7515 -86.9834
rradius 97.1122
rwrist 23.8227
rhand -29.3036 -24.1009
rfingers 7.12502
rthumb -2.64487 -54.0643
lclavicle 9.54166e-015 6.99722e-014
lhumerus -16.8357 -33.6188 81.3382
lradius 95.9558
lwrist 8.92732
lhand -1.37881 36.6714
lfingers 7.12502
lthumb 24.2691 65.1553
rfemur -57.0929 -12.8165 31.8925
rtibia 34.9179
rfoot -3.5499 -14.3802
rtoes -11.2761
lfemur -47.6033 6.37753 3.83835
ltibia 50.3592
lfoot 1.20273 9.42277
ltoes -29.9631
387
root -4.20567 18.0313 5.0603 49.9737 -63.4529 -24.8006
lowerback 28.3451 0.209988 -5.99672
upperback 10.1772 -2.09136 -1.89403
thorax -4.08527 -1.35087 2.01403
lowerneck -5.81671 -10.9992 -14.5815
upperneck -15.6343 -12.9416 33.5526
head 0.349542 -7.61936 12.8143
rclavicle -2.54444e-014 1.27222e-014
rhumerus -10.3259 40.892 -86.9523
rradius 97.7957
rwrist 23.4981
rhand -29.0629 -24.0346
rfingers 7.12502
rthumb -2.41242 -54.0007
lclavicle -2.54444e-014 1.27222e-014
lhumerus -17.8322 -33.9023 82.0918
lradius 96.2222
lwrist 8.88348
lhand -0.810375 36.4286
lfingers 7.12502
lthumb 24.814 64.8386
rfemur -56.5319 -12.8127 32.0688
rtibia 34.199
rfoot -3.22377 -14.0591
rtoes -10.7498
lfemur -46.2818 6.24249 3.82517
ltibia 50.9562
lfoot 1.74969 9.53094
ltoes -29.9241
388
root -4.38582 18.0099 5.07339 49.6953 -64.1801 -25.399
lowerback 27.6267 0.0858617 -6.01265
upperback 9.94049 -2.18782 -1.89568
thorax -4.00489 -1.38922 2.03654
lowerneck -5.89497 -11.0714 -14.5997
upperneck -15.1863 -13.136 33.452
head 0.522453 -7.66313 12.7208
rclavicle -5.08889e-014 -1.00187e-013
rhumerus -11.0227 40.9592 -86.8257
rradius 98.506
rwrist 23.1214
rhand -28.8287 -23.9937
rfingers 7.12502
rthumb -2.1863 -53.9623
lclavicle -5.08889e-014 -1.00187e-013
lhumerus -18.7605 -34.0787 82.7558
lradius 96.4305
lwrist 8.82652
lhand -0.235259 36.156
lfingers 7.12502
lthumb 25.365 64.4889
rfemur -55.9507 -12.8048 32.2679
rtibia 33.5964
rfoot -2.91519 -13.7237
rtoes -10.1426
lfemur -44.969 6.09762 3.81096
ltibia 51.5837
lfoot 2.32997 9.6221
ltoes -29.8122
389
root -4.56888 17.9856 5.08635 49.4505 -64.9107 -26.0355
lowerback 26.9055 -0.0442194 -6.01829
upperback 9.69918 -2.28926 -1.896
thorax -3.92417 -1.42958 2.05446
lowerneck -5.98766 -11.135 -14.6132
upperneck -14.7014 -13.3227 33.3151
head 0.700913 -7.69735 12.6127
rclavicle -6.36111e-015 1.43125e-014
rhumerus -11.6848 40.9547 -86.5899
rradius 99.2471
rwrist 22.6876
rhand -28.5975 -23.9786
rfingers 7.12502
rthumb -1.96303 -53.9493
lclavicle -6.36111e-015 1.43125e-014
lhumerus -19.6183 -34.1531 83.3253
lradius 96.5788
lwrist 8.75205
lhand 0.336892 35.846
lfingers 7.12502
lthumb 25.913 64.1
rfemur -55.3487 -12.793 32.4818
rtibia 33.1089
rfoot -2.62752 -13.3793
rtoes -9.45068
lfemur -43.6693 5.93987 3.79129
ltibia 52.2411
lfoot 2.93807 9.69374
ltoes -29.6253
